HIERARCHY
ROOT Hips
{
	OFFSET	0.00	0.00	0.00
	CHANNELS 6 Xposition Yposition Zposition Zrotation Xrotation Yrotation
	JOINT LeftHip
	{
		OFFSET	 3.430000	 0.000000	 0.000000
		CHANNELS 3 Zrotation Xrotation Yrotation
		JOINT LeftKnee
		{
			OFFSET	 0.000000	-18.469999	 0.000000
			CHANNELS 3 Zrotation Xrotation Yrotation
			JOINT LeftAnkle
			{
				OFFSET	 0.000000	-17.950001	 0.000000
				CHANNELS 3 Zrotation Xrotation Yrotation
				End Site 
				{
					OFFSET	 0.000000	-3.119996	 0.000000
				}
			}
		}
	}
	JOINT RightHip
	{
		OFFSET	-3.430000	 0.000000	 0.000000
		CHANNELS 3 Zrotation Xrotation Yrotation
		JOINT RightKnee
		{
			OFFSET	 0.000000	-18.809999	 0.000000
			CHANNELS 3 Zrotation Xrotation Yrotation
			JOINT RightAnkle
			{
				OFFSET	 0.000000	-17.570000	 0.000000
				CHANNELS 3 Zrotation Xrotation Yrotation
				End Site 
				{
					OFFSET	 0.000000	-3.250000	 0.000000
				}
			}
		}
	}
	JOINT Chest
	{
		OFFSET	 0.000000	 4.570000	 0.000000
		CHANNELS 3 Zrotation Xrotation Yrotation
		JOINT LeftCollar
		{
			OFFSET	 1.060000	 15.330000	 1.760000
			CHANNELS 3 Zrotation Xrotation Yrotation
			JOINT LeftShoulder
			{
				OFFSET	 5.810000	 0.000000	 0.000000
				CHANNELS 3 Zrotation Xrotation Yrotation
				JOINT LeftElbow
				{
					OFFSET	 0.000000	-12.080000	 0.000000
					CHANNELS 3 Zrotation Xrotation Yrotation
					JOINT LeftWrist
					{
						OFFSET	 0.000000	-9.820000	 0.000000
						CHANNELS 3 Zrotation Xrotation Yrotation
						End Site 
						{
							OFFSET	 0.000000	-7.369996	 0.000000
						}
					}
				}
			}
		}
		JOINT RightCollar
		{
			OFFSET	-1.060000	 15.330000	 1.760000
			CHANNELS 3 Zrotation Xrotation Yrotation
			JOINT RightShoulder
			{
				OFFSET	-6.060000	 0.000000	 0.000000
				CHANNELS 3 Zrotation Xrotation Yrotation
				JOINT RightElbow
				{
					OFFSET	 0.000000	-11.900000	 0.000000
					CHANNELS 3 Zrotation Xrotation Yrotation
					JOINT RightWrist
					{
						OFFSET	 0.000000	-9.520000	 0.000000
						CHANNELS 3 Zrotation Xrotation Yrotation
						End Site 
						{
							OFFSET	 0.000000	-7.140012	 0.000000
						}
					}
				}
			}
		}
		JOINT Neck
		{
			OFFSET	 0.000000	 17.620001	 0.000000
			CHANNELS 3 Zrotation Xrotation Yrotation
			JOINT Head
			{
				OFFSET	 0.000000	 5.190000	 0.000000
				CHANNELS 3 Zrotation Xrotation Yrotation
				End Site 
				{
					OFFSET	 0.000000	 4.140008	 0.000000
				}
			}
		}
	}
}

MOTION
Frames: 25
Frame Time: 0.033333
-32.3438 0.6196 -44.808 16.9308 3.48013 105.23 5.212 13.0442 7.71874 -0.00840935 16.3418 3.10704 -2.09863 -8.31249 9.8785 -1.2266 3.16336 -17.7701 -3.01617 11.2053 -0.599121 -0.156433 -2.27481 5.3099 7.75497 20.0468 -0.665311 0 0 0 4.56952 -8.34414 15.4641 -10.3683 -8.04768 -3.09723 0.61846 -5.73697 -23.8536 0 0 0 -11.0885 -5.05454 -7.19051 8.37976 -8.59092 1.84207 -9.91717 -20.5744 30.6289 0 0 0 0.561373 13.8329 1.37591 
-32.3754 0.6223 -44.8256 16.9426 3.48087 105.187 5.16415 13.0512 7.81016 0.00661765 16.3325 3.10866 -2.07163 -8.30427 9.84433 -1.23256 3.1522 -17.7273 -3.07315 11.0879 -0.575849 -0.101247 -2.1491 5.29563 7.80825 20.0619 -0.751927 0 0 0 4.55668 -8.53949 15.5974 -10.4629 -8.12102 -3.0783 0.357882 -5.62914 -22.5164 0 0 0 -11.124 -5.06521 -7.09575 8.39541 -8.56138 1.8749 -9.68491 -20.4687 30.3552 0 0 0 0.628859 14.0768 1.07684 
-32.4112 0.627 -44.8402 16.9661 3.4971 105.153 5.08802 13.0608 7.9486 0.0379756 16.3341 3.08795 -2.03236 -8.29224 9.78458 -1.25009 3.16288 -17.6675 -3.12386 10.9801 -0.555163 -0.0466498 -2.03242 5.25662 7.8535 20.0936 -0.811177 0 0 0 4.50575 -8.69896 15.6811 -10.5261 -8.21538 -3.02669 -0.309432 -5.19702 -20.2207 0 0 0 -11.1987 -5.0878 -7.08154 8.45476 -8.65648 1.94507 -9.46677 -20.4503 29.9846 0 0 0 0.649392 14.2309 0.784268 
-32.4543 0.6303 -44.8608 16.9938 3.51106 105.123 5.00058 13.0723 8.18018 0.0972453 16.3456 3.01861 -1.98557 -8.29614 9.67763 -1.27626 3.15676 -17.6028 -3.16745 10.8963 -0.553581 0.00494001 -1.91888 5.23084 7.90926 20.1591 -0.851465 0 0 0 4.40186 -8.92666 15.4352 -10.8227 -8.75369 -2.81451 -1.2553 -4.99463 -16.7008 0 0 0 -11.3683 -5.35052 -7.34247 8.76705 -9.67327 2.31179 -9.58896 -20.6171 27.6538 0 0 0 0.684589 14.3406 0.430825 
-32.5371 0.6404 -44.8959 17.0265 3.53725 105.062 4.83469 13.0656 8.5336 0.204779 16.359 2.96191 -1.91926 -8.28446 9.48639 -1.33662 3.13775 -17.4892 -3.22941 10.7236 -0.570666 0.0989159 -1.69527 5.21199 8.03008 20.2603 -0.963519 0 0 0 4.25094 -9.39909 15.2238 -11.7099 -10.1445 -2.69537 -2.66882 -4.93398 -12.1255 0 0 0 -11.6531 -5.84834 -7.75159 9.25693 -11.1674 2.87376 -9.74957 -20.8605 24.3231 0 0 0 0.756004 14.6258 -0.193676 
-32.62 0.6479 -44.9261 17.0661 3.5792 105.044 4.66707 13.0595 8.85797 0.273556 16.3785 2.87861 -1.81291 -8.27625 9.32001 -1.43051 3.10107 -17.4411 -3.30868 10.6155 -0.542383 0.21066 -1.50464 5.17899 8.11784 20.37 -1.06213 0 0 0 4.18219 -9.913 14.9403 -13.1563 -12.3574 -3.11934 -4.43578 -4.70601 -7.3759 0 0 0 -12.0433 -6.70472 -8.46048 10.0137 -13.1367 3.62868 -10.0058 -21.2153 20.3783 0 0 0 0.82523 14.8704 -0.800822 
-32.7029 0.6504 -44.9487 17.108 3.62209 105.05 4.51686 13.0489 9.18115 0.340525 16.3979 2.78423 -1.71021 -8.26146 9.13075 -1.53232 3.04014 -17.4324 -3.38201 10.5675 -0.482483 0.320132 -1.34728 5.13382 8.21589 20.4848 -1.13882 0 0 0 4.08936 -10.4766 14.6393 -15.2646 -15.3177 -3.9464 -6.64195 -4.45638 -2.93368 0 0 0 -12.6127 -7.93242 -9.44438 11.0398 -15.5599 4.59183 -10.3313 -21.722 16.1725 0 0 0 0.921591 15.0774 -1.37484 
-32.7782 0.6554 -44.9688 17.1311 3.68298 105.073 4.37518 13.0165 9.46762 0.382872 16.4179 2.70487 -1.60587 -8.24309 8.94263 -1.67148 2.93884 -17.4591 -3.40747 10.6227 -0.408094 0.380815 -1.25096 5.08541 8.28431 20.5919 -1.16932 0 0 0 4.09716 -11.6642 14.4941 -17.7384 -17.9272 -5.10318 -9.16833 -4.83578 0.76121 0 0 0 -13.3482 -9.47134 -10.709 12.3099 -18.5933 5.69474 -10.7335 -22.45 12.2242 0 0 0 1.00987 15.2622 -1.86147 
-32.8636 0.6579 -44.9788 17.1595 3.76612 105.147 4.22815 12.971 9.69066 0.423389 16.4472 2.6328 -1.50336 -8.21145 8.75889 -1.8426 2.83896 -17.5186 -3.43034 10.6893 -0.374499 0.448478 -1.1496 5.06472 8.32867 20.687 -1.19688 0 0 0 4.06348 -13.2012 14.3495 -20.6539 -20.9229 -6.58472 -11.803 -5.3331 3.70375 0 0 0 -14.2837 -11.3053 -12.1823 13.8029 -21.8162 6.9451 -11.2592 -23.2193 8.64047 0 0 0 1.1307 15.5538 -2.39371 
-32.9565 0.6579 -44.9863 17.1682 3.87301 105.263 4.04598 12.8719 9.8 0.488387 16.4725 2.59122 -1.41896 -8.14933 8.61252 -2.05657 2.71493 -17.6229 -3.43572 10.7769 -0.362493 0.515496 -1.05425 5.07366 8.32602 20.7491 -1.20293 0 0 0 3.99285 -15.0552 14.1047 -24.3105 -24.4355 -8.7643 -13.3759 -6.23387 4.50037 0 0 0 -15.517 -13.5154 -13.7607 15.4729 -25.0811 8.32962 -11.9123 -23.9932 5.82767 0 0 0 1.29385 15.9167 -2.92919 
-33.0343 0.6605 -44.9863 17.166 3.98556 105.39 3.89048 12.7659 9.76844 0.514447 16.4861 2.60194 -1.34967 -8.06557 8.5403 -2.26 2.61025 -17.748 -3.43667 10.8534 -0.346396 0.568708 -0.974057 5.08134 8.28846 20.7735 -1.20281 0 0 0 4.02635 -16.8684 14.1134 -28.0873 -27.4393 -11.3756 -14.294 -7.16438 3.07483 0 0 0 -16.7586 -15.5766 -15.0549 16.8005 -27.415 9.42075 -12.3577 -24.9571 5.64233 0 0 0 1.4408 16.2897 -3.33315 
-33.1046 0.663 -44.9813 17.1556 4.0999 105.51 3.75519 12.6644 9.68419 0.517752 16.4872 2.62532 -1.29709 -7.97336 8.50704 -2.44627 2.51439 -17.8653 -3.45158 10.9058 -0.336273 0.614222 -0.891469 5.09132 8.22103 20.7643 -1.17279 0 0 0 4.07784 -18.6136 14.174 -31.5224 -29.6806 -13.915 -14.6703 -8.02129 0.817701 0 0 0 -18.0616 -17.428 -16.1057 17.8756 -29.1253 10.3234 -12.6431 -25.9442 7.23953 0 0 0 1.59693 16.6642 -3.68976 
-33.1624 0.6605 -44.9762 17.1406 4.19902 105.615 3.64255 12.5695 9.60736 0.527472 16.4934 2.63625 -1.26346 -7.89751 8.48536 -2.59705 2.43887 -17.9576 -3.46827 10.9215 -0.348512 0.659574 -0.802798 5.1091 8.15623 20.7342 -1.12358 0 0 0 4.05961 -20.2496 14.2562 -34.0751 -30.9286 -15.8578 -14.4784 -8.63609 -2.20643 0 0 0 -19.2176 -18.8765 -16.7147 18.5244 -30.2751 10.9799 -12.7079 -26.8054 10.1138 0 0 0 1.73089 17.0107 -3.98584 
-33.2101 0.6605 -44.9737 17.1257 4.2875 105.705 3.52881 12.4838 9.51313 0.535613 16.5004 2.66138 -1.23129 -7.83299 8.48615 -2.73755 2.39442 -18.0287 -3.46901 10.9049 -0.3821 0.691825 -0.714419 5.1371 8.08729 20.7026 -1.06658 0 0 0 4.03164 -21.6114 14.2622 -35.2478 -30.94 -16.9099 -13.8191 -9.28147 -5.71395 0 0 0 -20.0961 -19.9231 -16.9885 18.7674 -30.725 11.3158 -12.5037 -27.2209 14.0452 0 0 0 1.78433 17.2959 -4.10124 
-33.2453 0.663 -44.9712 17.1034 4.36851 105.784 3.41658 12.4018 9.4225 0.560906 16.5111 2.67623 -1.21023 -7.77996 8.50051 -2.84093 2.38391 -18.0817 -3.47627 10.8461 -0.432221 0.721018 -0.636497 5.17262 8.0064 20.654 -0.999549 0 0 0 3.63331 -21.6475 13.8688 -35.8082 -31.2735 -17.5965 -12.5069 -9.16851 -9.15242 0 0 0 -20.6387 -20.4503 -16.8848 18.5655 -30.344 11.3771 -12.2768 -27.1347 18.0482 0 0 0 1.63743 17.4657 -3.79102 
-33.2704 0.6655 -44.9737 17.0778 4.42089 105.821 3.32502 12.3325 9.37317 0.589034 16.5153 2.68599 -1.20507 -7.73897 8.51674 -2.86793 2.44333 -18.116 -3.50223 10.7044 -0.461735 0.743503 -0.572534 5.19996 7.95302 20.6006 -0.906041 0 0 0 3.29917 -20.9219 13.395 -35.3829 -30.8855 -17.7631 -10.9046 -9.26711 -12.4117 0 0 0 -20.7249 -20.2898 -16.3542 17.9261 -29.3983 11.1253 -12.1353 -26.8409 21.7261 0 0 0 1.3145 17.5646 -2.72063 
-33.2704 0.668 -44.9762 17.06 4.42867 105.818 3.31016 12.3214 9.35833 0.576651 16.5151 2.69089 -1.20499 -7.74136 8.53577 -2.82214 2.57101 -18.1476 -3.5283 10.5055 -0.46947 0.75299 -0.531776 5.23153 7.95233 20.536 -0.822469 0 0 0 2.94924 -19.6013 12.9465 -33.3744 -29.2188 -16.7139 -9.24757 -9.19628 -15.2483 0 0 0 -20.391 -19.4417 -15.5684 16.9786 -27.9538 10.5869 -11.9888 -26.189 24.9076 0 0 0 0.594785 17.597 -0.221568 
-33.2528 0.668 -44.9788 17.0351 4.4073 105.799 3.32608 12.3128 9.35403 0.558385 16.5238 2.68799 -1.21988 -7.76607 8.56645 -2.7407 2.72452 -18.178 -3.55148 10.2808 -0.46405 0.757759 -0.50944 5.26661 7.96992 20.4332 -0.698662 0 0 0 2.58613 -17.921 12.4647 -30.7533 -26.9511 -15.2146 -7.34849 -8.98641 -18.175 0 0 0 -19.8367 -18.1623 -14.7941 15.8765 -26.1482 9.88018 -11.8159 -25.3078 27.8381 0 0 0 -0.33378 17.6263 3.44093 
-33.1775 0.6705 -44.9863 16.97 4.32511 105.792 3.41695 12.2783 9.32596 0.504828 16.5548 2.69416 -1.22514 -7.83409 8.60733 -2.58619 2.87802 -18.2224 -3.57543 10.0392 -0.455271 0.764073 -0.529933 5.29073 8.09524 20.2849 -0.507474 0 0 0 2.04368 -15.8384 11.6329 -26.82 -23.434 -13.0237 -4.80375 -8.6741 -20.5416 0 0 0 -18.9253 -16.2401 -14.0999 14.4933 -23.6931 8.89311 -11.8785 -24.4438 30.0514 0 0 0 -1.75453 17.6233 9.37193 
-33.0896 0.673 -44.9938 16.8982 4.2298 105.809 3.52418 12.233 9.26998 0.458377 16.593 2.67539 -1.2376 -7.90775 8.67552 -2.4205 3.04369 -18.2842 -3.58132 9.79789 -0.456458 0.758727 -0.572823 5.31867 8.2375 20.1332 -0.295454 0 0 0 1.49637 -13.6684 10.7316 -22.7087 -19.4637 -10.7858 -2.45355 -8.61845 -22.3 0 0 0 -17.9402 -14.1715 -13.5204 13.1836 -21.0655 7.84205 -12.0986 -23.6134 31.4075 0 0 0 -3.18631 17.5038 15.833 
-32.9916 0.6831 -45.0014 16.8113 4.13982 105.842 3.63213 12.1792 9.20205 0.413849 16.6276 2.65927 -1.25788 -7.98303 8.73571 -2.22792 3.21893 -18.3658 -3.61177 9.53331 -0.450015 0.752914 -0.627669 5.33512 8.40449 19.9907 -0.0883215 0 0 0 0.998921 -11.5994 9.8547 -18.8107 -15.6509 -8.71406 -0.182985 -8.52921 -23.6381 0 0 0 -16.9713 -12.0724 -13.0002 11.9423 -18.3452 6.802 -12.4512 -23.2566 31.9361 0 0 0 -4.60115 17.1809 22.373 
-32.8711 0.6906 -44.9964 16.6864 4.07699 106.036 3.8004 12.1202 9.0778 0.363875 16.6679 2.59239 -1.32207 -8.08904 8.71689 -2.03391 3.40596 -18.5438 -3.64071 9.26261 -0.456553 0.73408 -0.714633 5.29901 8.60771 19.8453 0.160215 0 0 0 0.668029 -9.89136 9.01561 -14.9102 -11.2801 -6.53722 2.71184 -8.16083 -24.4998 0 0 0 -15.8493 -9.69637 -12.4956 10.61 -15.3758 5.47047 -13.0245 -22.625 31.7531 0 0 0 -6.11864 16.5976 29.3442 
-32.7405 0.6956 -44.9838 16.5606 4.03012 106.31 3.98709 12.0707 8.97195 0.332116 16.719 2.49503 -1.39869 -8.21443 8.61667 -1.87044 3.56793 -18.7309 -3.6549 9.04447 -0.495562 0.725303 -0.816892 5.22523 8.789 19.7203 0.425559 0 0 0 0.404228 -8.27006 8.51317 -11.4629 -7.213 -4.66278 6.02849 -7.58597 -25.3219 0 0 0 -14.7337 -7.36872 -12.0769 9.49664 -12.5036 4.16823 -13.7431 -21.7976 31.4784 0 0 0 -7.51568 15.7766 35.7317 
-32.6074 0.7032 -44.9713 16.4039 4.00949 106.668 4.19182 12.0204 8.90315 0.299558 16.7489 2.40812 -1.49423 -8.33844 8.37354 -1.7455 3.66266 -18.9188 -3.65827 8.90314 -0.519054 0.713093 -0.943714 5.05619 8.91332 19.6145 0.787818 0 0 0 0.313733 -6.76365 8.23188 -8.77955 -4.02876 -3.26798 8.94537 -7.19218 -25.6043 0 0 0 -13.6439 -5.12327 -11.7648 8.60327 -9.90389 2.99842 -14.6082 -21.0731 30.9181 0 0 0 -8.59545 14.8756 40.7335 
-32.4718 0.7082 -44.9512 16.2309 4.00242 107.108 4.38722 11.9612 8.77569 0.284281 16.7466 2.3401 -1.59736 -8.44282 8.07842 -1.66206 3.70844 -19.1578 -3.64874 8.83631 -0.543956 0.710362 -1.09356 4.85929 9.01355 19.5389 1.14101 0 0 0 0.351452 -5.4457 8.10442 -6.56645 -1.44756 -2.16999 11.3002 -6.92607 -25.4392 0 0 0 -12.5732 -3.03363 -11.4028 7.8735 -7.6431 1.97737 -15.6069 -20.4338 29.6021 0 0 0 -9.36428 14.0394 44.5013 
